<svg width="9742" height="10911" viewBox="0 0 9742 10911" fill="none" xmlns="http://www.w3.org/2000/svg">
<path d="M5412.17 78.1654C5432.97 84.7753 5453.77 91.3851 5475.2 98.1953C5664.7 166.523 5832.31 272.667 6003.79 376.947C6095.56 432.316 6188.16 486.265 6280.72 540.31C6335.23 572.151 6389.69 604.07 6444.15 635.993C6454.73 642.192 6465.31 648.391 6476.21 654.778C6570.84 710.267 6665.3 766.054 6759.71 821.935C6905.7 908.335 7051.95 994.303 7198.31 1080.07C7208.96 1086.3 7219.6 1092.54 7230.57 1098.97C7306.95 1143.72 7383.34 1188.46 7459.73 1233.2C7546.87 1284.23 7634.01 1335.27 7721.14 1386.32C7737.12 1395.69 7737.12 1395.69 7753.42 1405.24C7904.32 1493.67 8055 1582.46 8205.51 1671.54C8349.68 1756.82 8494.2 1841.51 8638.75 1926.13C8797.3 2018.96 8955.55 2112.25 9113.46 2206.15C9196.16 2255.16 9279.45 2302.64 9363.82 2348.7C9524.18 2436.43 9674.15 2521.34 9734.79 2703.23C9736.54 2748.38 9737.3 2793.05 9737.24 2838.19C9737.32 2859.03 9737.32 2859.03 9737.4 2880.28C9737.55 2926.99 9737.58 2973.69 9737.61 3020.4C9737.69 3053.83 9737.77 3087.26 9737.87 3120.7C9738.1 3211.72 9738.21 3302.75 9738.29 3393.78C9738.34 3450.75 9738.41 3507.72 9738.49 3564.69C9738.73 3743.21 9738.9 3921.73 9738.97 4100.25C9739.04 4305.77 9739.35 4511.28 9739.86 4716.8C9740.24 4875.92 9740.42 5035.04 9740.44 5194.16C9740.46 5289.04 9740.56 5383.92 9740.87 5478.79C9741.16 5568.31 9741.2 5657.83 9741.04 5747.35C9741.03 5779.94 9741.11 5812.54 9741.28 5845.14C9743.65 6314.64 9668.93 6794.6 9332.28 7148.35C9231.02 7249.49 9116.86 7319.76 8992.87 7390.21C8936.19 7422.43 8879.82 7455.17 8823.4 7487.83C8806.02 7497.87 8806.02 7497.87 8788.29 7508.1C8671 7575.97 8555.33 7646.38 8439.75 7717.12C8272.71 7819.2 8104.62 7919.28 7935.52 8017.91C7734.89 8134.96 7535.93 8254.52 7337.87 8375.89C7236.83 8437.67 7135.52 8499.01 7034.25 8560.42C6975.82 8595.85 6917.59 8631.22 6860.17 8668.28C6811.53 8698.29 6763.15 8718.35 6709.49 8737.9C6616.92 8775.47 6535.91 8812.77 6479.7 8898.4C6432.93 9090.42 6469.39 9309.25 6487.78 9504.21C6531.32 9968.96 6531.32 9968.96 6445.25 10080.6C6354.6 10157 6251.68 10202.2 6141.84 10244.5C6080.6 10269.1 6029.93 10300.3 5974.79 10336.4C5958 10346.8 5941.21 10357.2 5923.91 10367.9C5907.36 10378.2 5890.8 10388.5 5873.75 10399.1C5835.68 10422.6 5797.6 10446.1 5759.52 10469.5C5740.14 10481.5 5720.76 10493.5 5700.8 10505.8C5602.74 10566.2 5504.61 10626.6 5406.29 10686.6C5384.94 10699.7 5363.61 10712.7 5342.3 10725.9C5014.95 10927.3 5014.95 10927.3 4817.16 10893.5C4718.42 10856.5 4628.84 10805.1 4537.15 10753.4C4500.89 10733.5 4464.61 10713.6 4428.32 10693.7C4270.61 10606.9 4113.73 10518.7 3957.04 10430.2C3940.11 10420.6 3923.18 10411.1 3905.74 10401.3C3872.53 10382.4 3839.51 10363.1 3806.7 10343.5C3711.19 10287.2 3622.17 10246.5 3514.54 10218.8C3431.22 10181.3 3366.68 10146.3 3312.12 10070.9C3289.77 9970.1 3292.62 9870.86 3294.28 9768.03C3294.22 9737.51 3294.09 9706.99 3293.89 9676.48C3293.58 9612.51 3293.69 9548.57 3294.15 9484.6C3294.74 9392.8 3294.06 9301.05 3292.96 9209.26C3291.02 9039.35 3290.06 8869.44 3289.31 8699.52C3288.91 8614.01 3288.44 8528.5 3287.98 8442.98C3287.21 8299.36 3286.5 8155.73 3285.82 8012.1C3285.13 7866.93 3284.41 7721.75 3283.63 7576.58C3283.49 7549.82 3283.49 7549.82 3283.34 7522.52C3283.15 7486.61 3282.96 7450.71 3282.77 7414.8C3281.03 7089.21 3279.51 6763.63 3278.23 6438.04C3277.63 6284.22 3276.94 6130.41 3276.01 5976.59C3275.43 5878.53 3275.02 5780.48 3274.69 5682.42C3274.53 5645.1 3274.32 5607.77 3274.04 5570.45C3267.65 4713.93 3267.65 4713.93 3512.99 4427.81C3563.64 4376.41 3622.69 4336.78 3681.81 4295.78C3710.34 4275.68 3738.84 4255.56 3767.33 4235.41C3781.89 4225.14 3796.45 4214.87 3811.45 4204.28C3852.44 4174.85 3892.63 4144.62 3932.63 4113.87C4133.02 3960.35 4343.99 3830.99 4562.33 3704.71C4676.4 3638.72 4789.74 3571.53 4903.02 3504.22C4938.62 3483.07 4974.24 3461.94 5009.85 3440.82C5174.52 3343.08 5338.23 3243.84 5501.65 3144.05C5663.96 3045.04 5828.03 2949.42 5993.06 2855.03C6136.57 2772.67 6278.3 2687.68 6419.54 2601.51C6440.26 2588.88 6460.99 2576.25 6481.71 2563.61C6491.74 2557.5 6501.77 2551.38 6512.1 2545.08C6618.41 2480.26 6724.82 2415.66 6831.9 2352.13C6843.91 2344.93 6855.93 2337.72 6868.3 2330.3C6948.1 2283.22 6948.1 2283.22 6987.21 2283.22C6987.21 2271.67 6987.21 2260.12 6987.21 2248.22C6969.21 2241.79 6969.21 2241.79 6950.85 2235.23C6880.01 2204.74 6815.8 2163.41 6751.37 2121.28C6667.29 2070.27 6594.57 2053.47 6497.2 2073.22C6424.23 2101.95 6357.39 2139.35 6289.38 2178.22C6269.57 2189.22 6249.76 2200.22 6229.35 2211.56C6037.58 2318.44 5848.98 2430.95 5660.72 2543.87C5557.28 2605.84 5453.11 2666.53 5348.94 2727.27C5108.6 2867.49 4870.46 3011.15 4632.97 3156.14C4541.96 3211.69 4450.85 3267.09 4359.72 3322.45C4339.52 3334.72 4319.32 3347 4299.12 3359.28C4180.73 3431.24 4062.14 3502.85 3943.23 3573.95C3931.6 3580.91 3919.97 3587.87 3907.98 3595.04C3852.16 3628.43 3796.31 3661.78 3740.41 3695.05C3205.02 4005.64 3205.02 4005.64 2892.11 4523.28C2872.98 4627.84 2871.99 4730.19 2871.95 4836.29C2871.88 4855.31 2871.81 4874.33 2871.73 4893.93C2871.5 4957.58 2871.4 5021.24 2871.29 5084.9C2871.15 5130.58 2871 5176.27 2870.85 5221.96C2870.53 5320.37 2870.27 5418.79 2870.05 5517.2C2869.73 5659.96 2869.3 5802.73 2868.83 5945.49C2868.09 6177.76 2867.4 6410.04 2866.77 6642.31C2866.73 6656.2 2866.69 6670.1 2866.65 6684.41C2866.42 6768.84 2866.2 6853.27 2865.97 6937.7C2865.63 7063.74 2865.29 7189.78 2864.94 7315.82C2864.9 7329.6 2864.86 7343.38 2864.83 7357.58C2864.19 7588.63 2863.49 7819.68 2862.75 8050.72C2862.29 8192.81 2861.9 8334.9 2861.58 8476.99C2861.35 8574.75 2861.07 8672.51 2860.74 8770.27C2860.56 8826.4 2860.41 8882.52 2860.31 8938.65C2859.81 9223.14 2853.17 9506.75 2839.6 9790.92C2681.61 9714.61 2528.73 9632.14 2376.75 9544.47C2229.97 9459.8 2082.18 9376.99 1934.17 9294.48C1916.6 9284.67 1899.02 9274.86 1880.91 9264.75C1865.38 9256.09 1849.84 9247.44 1833.84 9238.53C1819.23 9230.24 1804.63 9221.95 1789.58 9213.41C1766.89 9205.85 1766.89 9205.85 1743.75 9198.14C1693.16 9152.94 1695.05 9140.16 1691.11 9074.41C1690.65 9036.28 1690.68 8998.14 1691.08 8960.01C1690.96 8939.03 1690.83 8918.05 1690.7 8896.44C1690.45 8838.09 1690.59 8779.77 1690.89 8721.43C1691.13 8658.54 1690.86 8595.66 1690.65 8532.77C1690.33 8409.5 1690.48 8286.22 1690.79 8162.94C1691.04 8062.69 1691.11 7962.43 1691.05 7862.18C1691.04 7847.92 1691.03 7833.66 1691.02 7818.96C1691 7789.99 1690.98 7761.02 1690.97 7732.05C1690.82 7475.62 1691.11 7219.19 1691.63 6962.76C1692.13 6714.16 1692.26 6465.55 1691.99 6216.94C1691.69 5946.23 1691.62 5675.52 1691.93 5404.81C1691.96 5375.9 1691.99 5346.99 1692.03 5318.07C1692.04 5303.85 1692.06 5289.62 1692.07 5274.97C1692.17 5174.97 1692.11 5074.97 1692 4974.97C1691.86 4852.89 1691.98 4730.82 1692.42 4608.74C1692.64 4546.51 1692.75 4484.29 1692.55 4422.06C1692.34 4354.42 1692.68 4286.8 1693.07 4219.16C1692.92 4199.72 1692.78 4180.28 1692.63 4160.25C1695.53 3884.35 1813.21 3683.29 2005.85 3492.37C2113.84 3391.1 2239.78 3319.66 2367.09 3245.75C2404.97 3223.54 2442.84 3201.33 2480.71 3179.1C2545.05 3141.35 2609.42 3103.65 2673.85 3066.05C2823.65 2978.58 2972.54 2889.71 3120.71 2799.49C3130.79 2793.35 3140.86 2787.21 3151.25 2780.89C3212.31 2743.71 3273.33 2706.47 3334.34 2669.21C3424.6 2614.12 3514.9 2559.11 3605.25 2504.17C3615.2 2498.11 3625.16 2492.05 3635.42 2485.81C3815.67 2376.21 3997.03 2268.53 4178.59 2161.12C4333.53 2069.42 4487.48 1976.43 4640.07 1880.87C4734.25 1822.16 4829.25 1764.96 4924.76 1708.44C4937.32 1701.01 4949.87 1693.58 4962.81 1685.92C5025.48 1648.86 5088.21 1611.9 5151 1575.04C5174.21 1561.35 5197.42 1547.67 5220.62 1533.99C5231.07 1527.89 5241.52 1521.79 5252.29 1515.5C5326.23 1471.83 5395.39 1423.78 5464.67 1373.2C5412.91 1344.38 5361.13 1315.59 5309.36 1286.79C5294.63 1278.59 5279.9 1270.39 5264.72 1261.94C5250.62 1254.1 5236.52 1246.26 5221.99 1238.19C5208.98 1230.95 5195.96 1223.71 5182.56 1216.25C5114.49 1178.89 5071.08 1175.57 4992.16 1180.69C4753.08 1266.81 4535.17 1425.5 4319.56 1558.31C4245.75 1603.77 4171.75 1648.92 4097.59 1693.81C4087.44 1699.96 4077.29 1706.1 4066.83 1712.43C4046.4 1724.8 4025.98 1737.16 4005.55 1749.52C3838.14 1850.89 3671.2 1953 3504.62 2055.72C3297.24 2183.59 3089.12 2310.2 2880.75 2436.44C2806.34 2481.53 2732.01 2526.74 2657.7 2571.98C2625.68 2591.47 2593.65 2610.95 2561.63 2630.43C2540.66 2643.19 2519.69 2655.96 2498.72 2668.74C2390.36 2734.75 2281.69 2800.02 2171.49 2862.94C2010.98 2954.83 1864.09 3060.45 1719.57 3175.75C1704.08 3187.97 1688.58 3200.2 1672.61 3212.8C1453.71 3395.66 1324.27 3630.53 1282.06 3910.77C1277.3 3980.72 1277.06 4050.4 1277.19 4120.5C1277.09 4140.94 1276.99 4161.39 1276.88 4182.45C1276.64 4238.73 1276.55 4295 1276.52 4351.27C1276.46 4412.13 1276.19 4472.99 1275.95 4533.85C1275.56 4639.14 1275.3 4744.43 1275.12 4849.72C1274.87 5001.95 1274.42 5154.17 1273.93 5306.4C1273.13 5553.41 1272.49 5800.42 1271.95 6047.44C1271.42 6287.31 1270.82 6527.17 1270.12 6767.04C1270.07 6781.84 1270.03 6796.64 1269.99 6811.89C1269.77 6886.14 1269.55 6960.39 1269.33 7034.64C1267.52 7650.06 1265.96 8265.48 1264.56 8880.9C1199.61 8869.01 1151.97 8853.03 1094.62 8819.92C1078.81 8810.88 1063 8801.84 1046.71 8792.53C1021.36 8777.8 1021.36 8777.8 995.493 8762.77C959.173 8741.94 922.85 8721.11 886.526 8700.29C858.668 8684.24 858.668 8684.24 830.247 8667.87C728.534 8609.47 626.203 8552.17 523.981 8494.67C493.381 8477.4 463.072 8459.61 433.068 8441.32C384.557 8415.14 341.328 8396.74 289.949 8378.28C193.264 8339.56 106.969 8297.3 39.5305 8215.88C-17.0817 8068.08 1.99973 7899.68 8.71352 7744.24C11.145 7678.91 11.5923 7613.57 12.2122 7548.21C13.3159 7449.15 15.0231 7350.14 17.4312 7251.1C22.2485 7051.7 22.6726 6852.47 21.6028 6653.02C21.4432 6621.13 21.284 6589.23 21.1248 6557.33C20.8797 6508.98 20.6309 6460.63 20.3702 6412.28C19.4369 6231.75 19.5122 6051.22 19.6374 5870.68C19.6565 5837.52 19.6748 5804.36 19.693 5771.19C19.7204 5721.26 19.7483 5671.32 19.7795 5621.39C19.8568 5485.91 19.8012 5350.42 19.7165 5214.94C19.6363 5081.22 19.6261 4947.5 19.6716 4813.79C19.6983 4735.22 19.7043 4656.66 19.6449 4578.1C19.4558 4287.21 20.3492 3996.51 29.5583 3705.74C30.1993 3684.88 30.8403 3664.02 31.5008 3642.53C47.0673 3212.24 144.778 2797.95 412.509 2451.67C419.528 2442.53 426.547 2433.39 433.778 2423.97C572.821 2252.9 743.083 2128.89 932.054 2018.53C953.488 2005.79 974.911 1993.04 996.322 1980.26C1051.43 1947.45 1106.68 1914.9 1161.97 1882.41C1214.09 1851.71 1266.05 1820.75 1318.02 1789.79C1415.96 1731.52 1514.05 1673.5 1612.21 1615.59C1664 1585.02 1715.75 1554.39 1767.5 1523.73C2132.85 1307.33 2499.9 1093.86 2868.01 882.187C2918.07 853.388 2968.09 824.538 3018.11 795.672C3283.22 642.774 3550.29 494.152 3820.62 350.61C3869.35 324.651 3917.93 298.424 3966.47 272.106C4423.09 25.7157 4905.32 -87.5228 5412.17 78.1654ZM9321.47 2512.85C9306.77 2521.53 9306.77 2521.53 9291.76 2530.4C9259.27 2549.62 9226.87 2569.01 9194.46 2588.39C9171.6 2601.95 9148.74 2615.49 9125.87 2629.02C9078.28 2657.2 9030.73 2685.42 8983.19 2713.68C8916.4 2753.34 8849.43 2792.68 8782.38 2831.89C8771.93 2838 8761.47 2844.11 8750.7 2850.41C8729.72 2862.68 8708.74 2874.94 8687.76 2887.2C8513.17 2989.28 8339.06 3092.12 8165.21 3195.44C7991.57 3298.61 7817.02 3400.09 7641.92 3500.75C7507.84 3577.9 7374.43 3656.09 7241.36 3734.97C7109.85 3812.92 6978.03 3890.37 6846.12 3967.64C6835.47 3973.88 6824.81 3980.12 6813.84 3986.55C6770.36 4012.02 6726.88 4037.49 6683.4 4062.96C6607.01 4107.7 6530.63 4152.47 6454.27 4197.27C6273.59 4303.25 6092.91 4409.21 5911.9 4514.64C5860.42 4544.64 5808.97 4574.7 5757.53 4604.77C5689.69 4644.41 5621.67 4683.74 5553.54 4722.9C5161.41 4949.45 4819.49 5192.82 4696.01 5650.89C4655.42 5813.79 4639.65 5971.22 4636.94 6138.33C4636.61 6155.78 4636.27 6173.22 4635.92 6191.2C4634.83 6248.76 4633.86 6306.33 4632.89 6363.89C4632.16 6404.77 4631.43 6445.66 4630.69 6486.54C4623.4 6903.69 4619.33 7320.87 4615.81 7738.06C4614.91 7843.54 4613.95 7949.01 4613.01 8054.48C4611.23 8252.54 4609.51 8450.6 4607.8 8648.65C4605.85 8874.84 4603.84 9101.03 4601.83 9327.22C4597.71 9790.96 4593.66 10254.7 4589.65 10718.4C4625.7 10738.6 4661.82 10758.6 4698 10778.5C4718.12 10789.6 4738.23 10800.8 4758.95 10812.2C4829.32 10847 4895.95 10870.5 4974.66 10858.5C5009.86 10841.4 5044.89 10823.9 5079.66 10805.9C5079.67 10796.1 5079.68 10786.2 5079.7 10776.1C5080.32 10190.8 5081.32 9605.48 5082.78 9020.18C5082.95 8949.81 5083.12 8879.43 5083.3 8809.05C5083.33 8795.04 5083.36 8781.04 5083.4 8766.6C5083.94 8540.16 5084.24 8313.72 5084.44 8087.28C5084.66 7854.7 5085.14 7622.11 5085.87 7389.53C5086.31 7246.17 5086.54 7102.81 5086.51 6959.45C5086.51 6860.96 5086.77 6762.48 5087.23 6663.99C5087.48 6607.28 5087.59 6550.58 5087.47 6493.87C5086.93 6209.5 5095.29 5951.17 5229.51 5693.63C5235.4 5682.14 5241.29 5670.66 5247.36 5658.83C5371.07 5428.67 5556.52 5259.35 5777.84 5123.9C5792.58 5114.88 5792.58 5114.88 5807.63 5105.67C5913.43 5041.11 6019.98 4977.79 6126.64 4914.66C6162.67 4893.33 6198.69 4871.97 6234.71 4850.6C6334.71 4791.3 6434.74 4732.04 6534.79 4672.81C6605.4 4631.01 6676 4589.19 6746.58 4547.35C6758.22 4540.45 6769.85 4533.55 6781.83 4526.45C6954.28 4424.15 7125.95 4320.65 7297.15 4216.28C7473.28 4108.94 7650.45 4003.43 7827.95 3898.38C7991.69 3801.44 8154.79 3703.56 8317.25 3604.51C8503.18 3491.14 8690.11 3379.56 8877.51 3268.64C9108.16 3132.09 9337.45 2993.36 9566.25 2853.73C9610.66 2826.72 9655.19 2799.93 9699.79 2773.24C9676.01 2637.73 9624.76 2557.58 9512.75 2476.82C9432.64 2440.02 9392.41 2470.62 9321.47 2512.85ZM8522.74 4995.18C8503.46 5006.31 8484.17 5017.45 8464.29 5028.92C8449.03 5037.77 8449.03 5037.77 8433.45 5046.8C8403.56 5064.12 8373.63 5081.39 8343.71 5098.64C8227.45 5165.87 8111.91 5234.18 7996.85 5303.44C7920.19 5349.58 7843.33 5395.4 7766.33 5440.96C7635.3 5518.51 7504.4 5596.26 7373.59 5674.16C7349.6 5688.44 7325.61 5702.72 7301.61 5716.99C7234.15 5757.1 7166.77 5797.33 7099.52 5837.78C7069.19 5855.98 7038.79 5874.05 7008.39 5892.11C6762.7 6040.36 6581.78 6184.36 6492.42 6464.88C6464.17 6583.64 6459.72 6699.9 6460.49 6821.31C6460.52 6836.26 6460.54 6851.21 6460.57 6866.62C6460.66 6913.86 6460.88 6961.1 6461.11 7008.35C6461.19 7040.59 6461.27 7072.84 6461.35 7105.08C6461.54 7183.67 6461.84 7262.26 6462.2 7340.86C6626.91 7247.14 6790.97 7152.4 6954.4 7056.47C6970.86 7046.82 6970.86 7046.82 6987.66 7036.97C7180.76 6923.66 7373.16 6809.24 7564.73 6693.34C7580.45 6683.86 7596.18 6674.37 7612.38 6664.6C7801.43 6550.54 7989.61 6435.2 8176.15 6317.08C8191.78 6307.22 8207.41 6297.37 8223.52 6287.21C8480.38 6126.11 8480.38 6126.11 8632.26 5870.82C8647.89 5770.45 8652.34 5672.98 8652.08 5571.53C8652.11 5549.48 8652.11 5549.48 8652.13 5526.98C8652.14 5496.13 8652.11 5465.27 8652.04 5434.42C8651.95 5387.38 8652.04 5340.34 8652.15 5293.3C8652.14 5263.18 8652.12 5233.05 8652.08 5202.93C8652.14 5182.01 8652.14 5182.01 8652.19 5160.66C8651.88 5086.26 8646.98 5016.58 8632.26 4943.29C8594.57 4943.29 8553.81 4977.23 8522.74 4995.18Z" fill="white"/>
</svg>
